season 1, 6 épisodes in french

En juin 40, Villeneuve, petite ville du centre de la France, est bouleversée par l'arrivée de l'armée allemande. L'Occupation vient de commencer et va durer cinq ans. Hortense, Jean, Raymond, Marie étaient des Françaises et des Français ordinaires, maris, femmes, notables ou paysans... ils deviendront patriotes, traîtres, collaborateurs ou résistants. Après s'être effondrée, la France se reconstruit jour après jour, mais à l'heure allemande. Avec cette période incertaine et dangereuse de notre histoire s'ouvre une ère nouvelle : aux règles imposées par l'occupant répondent celles de la désobéissance civile ou de la clandestinité. On y a peur, on y a faim, on s'y déchire au nom des valeurs et d'une certaine idée de la France... ou parfois simplement par amour.

Titre original : Un Village français
Créée par Frédéric Krivine, Philippe Triboit, Emmanuel Daucé en 2008
Série française - Genre : Drame, Historique - Format : 52mn 
Saisons : 06 - Episodes : 60 (prévisions)
Diffusion d'origine : 04 juin 2009 – en production
Avec : Robin Renucci, Audrey Fleurot, Nicolas Gob



WEBRiP.flv

Media info first épisodes:
Format                                   : Flash Video
File size                                : 316 MiB
Duration                                 : 47mn 55s
Overall bit rate                         : 921 Kbps
Tagging application                      : Yet Another Metadata Injector for FLV - Version 1.4

Video
Format                                   : AVC
Format/Info                              : Advanced Video Codec
Format profile                           : High@L3.0
Format settings, CABAC                   : Yes
Format settings, ReFrames                : 4 frames
Codec ID                                 : 7
Duration                                 : 47mn 55s
Bit rate                                 : 766 Kbps
Width                                    : 640 pixels
Height                                   : 352 pixels
Display aspect ratio                     : 16:9
Frame rate mode                          : Constant
Frame rate                               : 25.000 fps
Color space                              : YUV
Chroma subsampling                       : 4:2:0
Bit depth                                : 8 bits
Scan type                                : Progressive
Bits/(Pixel*Frame)                       : 0.136
Stream size                              : 270 MiB (85%)
Writing library                          : x264 core 116


Audio
Format                                   : MPEG Audio
Format version                           : Version 1
Format profile                           : Layer 3
Mode                                     : Joint stereo
Mode extension                           : MS Stereo
Codec ID                                 : 2
Codec ID/Hint                            : MP3
Duration                                 : 47mn 55s
Bit rate mode                            : Constant
Bit rate                                 : 128 Kbps
Channel(s)                               : 2 channels
Sampling rate                            : 44.1 KHz
Compression mode                         : Lossy
Delay relative to video                  : 40ms
Stream size                              : 45.1 MiB (14%)		